<svg width="768" height="768" viewBox="0 0 768 768" fill="none" xmlns="http://www.w3.org/2000/svg">
  <path d="M173 347C173 237.095 262.095 148 372 148H432C546.875 148 640 241.125 640 356V443C640 539.65 561.65 618 465 618H345C250.007 618 173 540.993 173 446V347Z" fill="#0068FF"/>
  <path d="M238 309C238 222.292 308.292 152 395 152H444C552.8 152 641 240.2 641 349V428C641 507.529 576.529 572 497 572H395C355.118 572 318.47 561.115 288 542L239 561C225 566.429 211.5 552.5 220 539C232.252 519.541 238 496.5 238 470V309Z" fill="white"/>
  <path d="M218 506C231.5 538.5 257.5 567 293 585C260.5 574 233.5 558 212 533C219.5 527.5 222 517 218 506Z" fill="#0068FF"/>
  <path d="M559 561C594.5 547.5 623 520 638 482V508C638 569.304 588.304 619 527 619H447C492 616 530.5 600 559 561Z" fill="#0068FF"/>
  <text x="425" y="430" text-anchor="middle" font-family="Arial, Helvetica, sans-serif" font-size="142" font-weight="700" fill="#0068FF">Zalo</text>
</svg>
